<svg width="200" height="200" viewBox="0 0 200 200" fill="none" xmlns="http://www.w3.org/2000/svg">
<g clip-path="url(#clip0)">
<path d="M76.8011 169.599C89.6142 169.599 100.001 159.212 100.001 146.399V123.199H76.8011C63.9879 123.199 53.6011 133.587 53.6011 146.399C53.6011 159.212 63.9879 169.599 76.8011 169.599Z" fill="#0ACF83"/>
<path d="M53.6011 99.9998C53.6011 87.1866 63.9879 76.7998 76.8011 76.7998H100.001V123.2H76.8011C63.9879 123.2 53.6011 112.812 53.6011 99.9998Z" fill="#A259FF"/>
<path d="M53.6011 53.6005C53.6011 40.7873 63.9879 30.4004 76.8011 30.4004H100.001V76.8005H76.8011C63.9879 76.8005 53.6011 66.4132 53.6011 53.6005Z" fill="#F24E1E"/>
<path d="M100 30.4004H123.2C136.013 30.4004 146.4 40.7873 146.4 53.6005C146.4 66.4132 136.013 76.8005 123.2 76.8005H100V30.4004Z" fill="#FF7262"/>
<path d="M146.4 99.9998C146.4 112.812 136.013 123.2 123.2 123.2C110.387 123.2 100 112.812 100 99.9998C100 87.1866 110.387 76.7998 123.2 76.7998C136.013 76.7998 146.4 87.1866 146.4 99.9998Z" fill="#1ABCFE"/>
</g>
<defs>
<clipPath id="clip0">
<rect width="200" height="200" fill="white"/>
</clipPath>
</defs>
</svg>
