<svg width="200" height="200" viewBox="0 0 200 200" fill="none" xmlns="http://www.w3.org/2000/svg">
<g clip-path="url(#clip0)">
<path d="M167.36 93.7634L106.234 32.6414C102.716 29.1212 97.0069 29.1212 93.4845 32.6414L80.7916 45.3344L96.8932 61.436C100.635 60.1716 104.926 61.0198 107.908 64.0025C110.905 67.0043 111.747 71.3317 110.452 75.0855L125.97 90.6036C129.724 89.3102 134.056 90.1469 137.055 93.1504C141.245 97.3394 141.245 104.129 137.055 108.321C132.863 112.513 126.073 112.513 121.879 108.321C118.727 105.165 117.948 100.536 119.544 96.6526L105.073 82.1812L105.071 120.264C106.12 120.783 107.078 121.468 107.908 122.293C112.099 126.482 112.099 133.272 107.908 137.467C103.717 141.657 96.9238 141.657 92.738 137.467C88.5473 133.272 88.5473 126.482 92.738 122.293C93.7423 121.289 94.9358 120.493 96.2495 119.952V81.5145C94.9339 80.9775 93.7397 80.1813 92.738 79.1733C89.5629 76.0026 88.7994 71.3437 90.4264 67.4451L74.5539 51.5709L32.6414 93.4807C29.1195 97.0042 29.1195 102.714 32.6414 106.235L93.7678 167.358C97.2869 170.879 102.995 170.879 106.519 167.358L167.359 106.519C170.88 102.997 170.88 97.2837 167.359 93.7634" fill="#DE4C36"/>
</g>
<defs>
<clipPath id="clip0">
<rect width="140" height="140" fill="white" transform="translate(30 30)"/>
</clipPath>
</defs>
</svg>
