<svg width="200" height="200" viewBox="0 0 200 200" fill="none" xmlns="http://www.w3.org/2000/svg">
<path d="M51.0937 25H149.906C164.887 25 177 37.1795 177 52.2436V147.756C177 162.821 164.887 175 149.906 175H51.0937C36.1125 175 24 162.821 24 147.756V52.2436C24 37.1795 36.1125 25 51.0937 25Z" fill="#330000"/>
<path d="M98.1416 115H74.4266L69.5816 130.064C69.4541 130.641 68.9441 131.026 68.3703 130.962H56.3853C55.6841 130.962 55.4928 130.577 55.6841 129.808L76.2116 70.3846C76.4028 69.7436 76.5941 69.0385 76.8491 68.2693C77.1041 66.9231 77.2316 65.5128 77.2316 64.1026C77.1678 63.7821 77.4228 63.4616 77.7416 63.3975C77.8053 63.3975 77.8691 63.3975 77.9328 63.3975H94.2528C94.7628 63.3975 95.0178 63.5898 95.0816 63.9103L118.35 129.936C118.542 130.641 118.35 130.962 117.713 130.962H104.389C103.943 131.026 103.497 130.705 103.369 130.256L98.1416 115ZM78.1241 101.987H94.3166C93.9341 100.641 93.4241 99.0385 92.8503 97.3718C92.2766 95.6411 91.7028 93.7821 91.1291 91.859C90.4916 89.8718 89.9178 87.9487 89.2803 85.9616C88.6428 83.9744 88.0691 82.1154 87.5591 80.2564C87.0491 78.4616 86.6028 76.7949 86.1566 75.2564H86.0291C85.4553 78.0128 84.7541 80.7693 83.8616 83.5257C82.9053 86.6026 81.9491 89.8077 80.9291 93.0128C80.0366 96.2821 79.0803 99.2949 78.1241 101.987Z" fill="#FF9A00"/>
<path d="M132.248 74.359C130.145 74.4231 128.105 73.5898 126.575 72.1154C125.108 70.5129 124.343 68.3975 124.407 66.218C124.343 64.0385 125.172 61.9872 126.702 60.5129C128.232 59.0385 130.272 58.2693 132.376 58.2693C134.862 58.2693 136.775 59.0385 138.177 60.5129C139.58 62.0513 140.345 64.1026 140.281 66.218C140.345 68.3975 139.58 70.5129 138.05 72.1154C136.583 73.6539 134.416 74.4872 132.248 74.359ZM125.108 130V80.6411C125.108 80.0001 125.363 79.7436 125.937 79.7436H138.56C139.133 79.7436 139.388 80.0642 139.388 80.6411V130C139.388 130.705 139.133 131.026 138.56 131.026H126.065C125.427 131.026 125.108 130.641 125.108 130Z" fill="#FF9A00"/>
</svg>
