<svg width="200" height="200" viewBox="0 0 200 200" fill="none" xmlns="http://www.w3.org/2000/svg">
<path d="M158.127 29H41.8726C34.7632 29 29 34.7632 29 41.8726V158.127C29 165.237 34.7632 171 41.8726 171H158.127C165.237 171 171 165.237 171 158.127V41.8726C171 34.7632 165.237 29 158.127 29Z" fill="#DC395F"/>
<path d="M76.4564 73.6773C81.1768 73.6773 85.1311 69.9775 85.1311 65.1285C85.1311 60.2827 81.1768 56.5835 76.4564 56.5835C71.736 56.5835 67.7827 60.2827 67.7827 65.1285C67.7827 69.977 71.736 73.6773 76.4564 73.6773ZM58.4701 119.45C57.9603 121.619 57.7046 123.961 57.7046 125.871C57.7046 133.399 61.7865 138.396 70.4613 138.396C77.6556 138.396 83.4881 134.124 87.6877 127.225L85.1234 137.516H99.4093L107.574 104.768C109.616 96.4766 113.57 92.1728 119.566 92.1728C124.286 92.1728 127.22 95.1082 127.22 99.954C127.22 101.358 127.092 102.887 126.582 104.546L122.372 119.599C121.734 121.768 121.48 123.938 121.48 125.977C121.48 133.123 125.688 138.35 134.491 138.35C142.017 138.35 148.012 133.505 151.329 121.896L145.717 119.729C142.91 127.506 140.486 128.913 138.573 128.913C136.659 128.913 135.638 127.638 135.638 125.088C135.638 123.94 135.894 122.666 136.276 121.131L140.359 106.467C141.379 103.023 141.763 99.9695 141.763 97.1639C141.763 86.1933 135.128 80.4678 127.092 80.4678C119.566 80.4678 111.911 87.2566 108.085 94.4015L110.891 81.5772H89.0783L86.0164 92.8728H96.2221L89.9375 118.033C85.0024 129.004 75.9372 129.182 74.7995 128.928C72.9313 128.506 71.7365 127.797 71.7365 125.369C71.7365 123.969 71.9917 121.957 72.6296 119.531L82.1979 81.5772H57.9603L54.8984 92.8728H64.9754L58.4706 119.45" fill="white"/>
</svg>
