<svg width="200" height="200" viewBox="0 0 200 200" fill="none" xmlns="http://www.w3.org/2000/svg">
<path d="M100.121 128.75C115.933 128.75 128.751 115.932 128.751 100.121C128.751 84.3092 115.933 71.4915 100.121 71.4915C84.3099 71.4915 71.4922 84.3092 71.4922 100.121C71.4922 115.932 84.3099 128.75 100.121 128.75Z" fill="#4E8EF7"/>
<path d="M158.546 51.541C158.546 46.1031 154.136 41.6966 148.7 41.6966C146.331 41.6952 144.042 42.5524 142.257 44.1096C130.516 35.2556 115.922 30 100.12 30C61.4553 30 30 61.4561 30 100.121C30 138.785 61.4561 170.242 100.121 170.242C138.785 170.242 170.24 138.785 170.24 100.121C170.24 84.3191 164.986 69.7233 156.132 57.9835C157.69 56.1987 158.547 53.9098 158.546 51.541V51.541ZM100.12 167.883C62.7561 167.883 32.3572 137.484 32.3572 100.12C32.3572 62.7569 62.7561 32.358 100.121 32.358C115.312 32.358 129.351 37.3843 140.665 45.8604C139.486 47.5194 138.853 49.5047 138.854 51.5402C138.854 56.9773 143.262 61.3839 148.699 61.3839C150.816 61.3839 152.771 60.7099 154.378 59.5725C162.854 70.8866 167.88 84.9255 167.88 100.119C167.882 137.484 137.484 167.882 100.12 167.882V167.883Z" fill="#4E8EF7"/>
</svg>
