<svg width="200" height="200" viewBox="0 0 200 200" fill="none" xmlns="http://www.w3.org/2000/svg">
<g clip-path="url(#clip0)">
<path d="M51.0937 25H149.906C164.887 25 177 37.1125 177 52.0937V147.081C177 162.062 164.887 174.175 149.906 174.175H51.0937C36.1125 174.175 24 162.062 24 147.081V52.0937C24 37.1125 36.1125 25 51.0937 25Z" fill="#001E36"/>
<path d="M58.4248 129.614V64.0149C58.4248 63.5687 58.6161 63.3137 59.0623 63.3137C60.1461 63.3137 61.1661 63.3137 62.6323 63.2499C64.1623 63.1862 65.7561 63.1862 67.4773 63.1224C69.1986 63.0587 71.0473 63.0587 73.0236 62.9949C74.9998 62.9312 76.9123 62.9312 78.8248 62.9312C84.0523 62.9312 88.3873 63.5687 91.9573 64.9074C95.1448 65.9912 98.0773 67.7762 100.5 70.1349C102.54 72.1749 104.134 74.6612 105.154 77.4024C106.11 80.0799 106.62 82.8212 106.62 85.6899C106.62 91.1724 105.345 95.6987 102.795 99.2687C100.245 102.839 96.6748 105.516 92.5311 107.046C88.1961 108.64 83.4148 109.214 78.1873 109.214C76.6573 109.214 75.6373 109.214 74.9998 109.15C74.3623 109.086 73.4698 109.086 72.2586 109.086V129.55C72.3223 129.996 72.0036 130.379 71.5573 130.442C71.4936 130.442 71.4298 130.442 71.3023 130.442H59.1898C58.6798 130.442 58.4248 130.187 58.4248 129.614ZM72.3223 75.6174V97.0374C73.2148 97.1012 74.0436 97.1649 74.8086 97.1649H78.1873C80.6736 97.1649 83.1598 96.7824 85.5186 96.0174C87.5586 95.4437 89.3436 94.2324 90.7461 92.6387C92.0848 91.0449 92.7223 88.8774 92.7223 86.0724C92.7861 84.0962 92.2761 82.1199 91.2561 80.3987C90.1723 78.7412 88.6423 77.4662 86.7936 76.7649C84.4348 75.8087 81.8848 75.4262 79.2711 75.4899C77.6136 75.4899 76.1473 75.4899 74.9361 75.5537C73.6611 75.4899 72.7686 75.5537 72.3223 75.6174Z" fill="#31A8FF"/>
<path d="M146.399 93.1487C144.487 92.1287 142.447 91.4275 140.279 90.9812C137.921 90.4712 135.562 90.1525 133.139 90.1525C131.864 90.0887 130.526 90.28 129.314 90.5987C128.486 90.79 127.784 91.2362 127.338 91.8737C127.019 92.3837 126.828 93.0212 126.828 93.595C126.828 94.1687 127.083 94.7425 127.466 95.2525C128.039 95.9537 128.804 96.5275 129.633 96.9737C131.099 97.7387 132.629 98.44 134.159 99.0775C137.602 100.225 140.917 101.819 143.977 103.731C146.081 105.07 147.802 106.855 149.013 109.022C150.033 111.062 150.543 113.294 150.479 115.589C150.543 118.585 149.651 121.581 147.993 124.067C146.208 126.617 143.722 128.594 140.853 129.741C137.729 131.08 133.904 131.781 129.314 131.781C126.382 131.781 123.513 131.526 120.644 130.952C118.413 130.57 116.182 129.869 114.142 128.912C113.696 128.657 113.377 128.211 113.441 127.701V116.609C113.441 116.417 113.504 116.162 113.696 116.035C113.887 115.907 114.078 115.971 114.269 116.099C116.756 117.565 119.369 118.585 122.174 119.222C124.597 119.86 127.147 120.179 129.697 120.179C132.119 120.179 133.841 119.86 134.988 119.286C136.008 118.84 136.709 117.756 136.709 116.609C136.709 115.716 136.199 114.887 135.179 114.059C134.159 113.23 132.056 112.274 128.932 111.062C125.681 109.915 122.684 108.385 119.879 106.472C117.903 105.07 116.246 103.221 115.034 101.054C114.014 99.0137 113.504 96.7825 113.568 94.5512C113.568 91.81 114.333 89.1962 115.736 86.8375C117.329 84.2875 119.688 82.2475 122.429 80.9725C125.426 79.4425 129.187 78.7412 133.713 78.7412C136.327 78.7412 139.004 78.9325 141.618 79.315C143.531 79.57 145.379 80.08 147.101 80.7812C147.356 80.845 147.611 81.1 147.738 81.355C147.802 81.61 147.866 81.865 147.866 82.12V92.5112C147.866 92.7662 147.738 93.0212 147.547 93.1487C146.973 93.2762 146.654 93.2762 146.399 93.1487Z" fill="#31A8FF"/>
</g>
<defs>
<clipPath id="clip0">
<rect width="153" height="149.175" fill="white" transform="translate(24 25)"/>
</clipPath>
</defs>
</svg>
