<svg width="200" height="200" viewBox="0 0 200 200" fill="none" xmlns="http://www.w3.org/2000/svg">
<path d="M49.8007 75.7325C51.4541 75.1658 53.1215 74.6408 54.8014 74.158C54.5228 73.0268 54.2652 71.8906 54.0286 70.75C50.2434 52.389 52.7183 37.5974 61.1701 32.7283C69.2733 28.0584 82.5264 32.9275 95.9115 44.5666C97.2304 45.7161 98.52 46.8988 99.7792 48.1134C100.622 47.3057 101.481 46.5138 102.353 45.7379C116.381 33.2916 130.442 28.0474 138.885 32.931C146.98 37.6139 149.378 51.52 145.97 68.9206C145.631 70.6438 145.249 72.3581 144.822 74.0618C146.812 74.6265 148.733 75.2282 150.572 75.8685C167.017 81.5977 177.521 90.5776 177.521 99.8914C177.521 109.512 166.246 119.16 149.116 125.011C147.727 125.483 146.326 125.92 144.915 126.323C145.373 128.158 145.78 130.006 146.135 131.864C149.384 148.963 146.847 162.539 138.773 167.193C130.433 171.998 116.436 167.059 102.806 155.154C101.729 154.213 100.647 153.215 99.5647 152.169C98.2009 153.484 96.8006 154.76 95.3656 155.997C82.1634 167.349 69.1248 171.933 61.0574 167.267C52.7252 162.447 50.0179 147.862 53.5337 130.117C53.8018 128.762 54.1146 127.378 54.4652 125.968C53.4821 125.678 52.5176 125.379 51.5764 125.067C33.7682 119.171 22.1822 109.64 22.1822 99.8914C22.1822 90.5439 33.0236 81.5036 49.8007 75.7325V75.7325Z" fill="#53C1DE"/>
<path d="M53.6643 118.773C54.5134 119.054 55.3851 119.325 56.2733 119.588C58.2395 113.369 60.8931 106.756 64.1393 99.9243C61.0409 93.254 58.4904 86.7258 56.5792 80.5467C54.9905 81.0069 53.4478 81.4912 51.9615 82.003C37.5864 86.947 28.8184 94.2583 28.8184 99.8913C28.8184 105.892 38.2884 113.682 53.6636 118.773H53.6643ZM60.0441 131.405C58.4897 139.252 58.2676 146.346 59.2975 151.892C60.2228 156.875 62.0831 160.197 64.3834 161.528C69.2789 164.359 79.7484 160.679 91.038 150.971C92.3325 149.858 93.6367 148.669 94.9442 147.412C90.5671 142.628 86.1927 137.067 81.9235 130.891C74.4136 130.225 67.3189 129.136 60.8848 127.651C60.5686 128.928 60.2867 130.181 60.0441 131.405V131.405ZM124.563 161.039C129.346 162.727 133.155 162.775 135.458 161.448C140.358 158.625 142.394 147.723 139.616 133.101C139.286 131.373 138.908 129.654 138.482 127.947C132.119 129.354 125.076 130.365 117.548 130.975C113.251 137.019 108.75 142.573 104.214 147.438C105.178 148.369 106.165 149.277 107.174 150.161C113.201 155.426 119.24 159.16 124.563 161.039H124.563ZM146.97 118.736C154.545 116.149 160.8 112.787 165.088 109.119C168.94 105.821 170.886 102.548 170.886 99.8913C170.886 94.2398 162.453 87.0301 148.388 82.1301C146.622 81.5177 144.839 80.9572 143.041 80.4491C141.097 86.767 138.547 93.3728 135.47 100.053C138.587 106.832 141.173 113.543 143.135 119.935C144.423 119.567 145.702 119.167 146.97 118.736V118.736ZM139.459 67.647C142.378 52.738 140.44 41.4918 135.561 38.6698C130.363 35.6637 118.872 39.9503 106.76 50.6963C105.986 51.3833 105.209 52.1025 104.43 52.8465C108.943 57.6889 113.402 63.2017 117.662 69.2098C124.968 69.8865 131.962 70.9732 138.391 72.4289C138.787 70.8439 139.143 69.2492 139.459 67.6463V67.647ZM72.4529 84.18C73.9715 81.5588 75.5464 78.9707 77.1765 76.4174C72.2199 77.0425 67.4715 77.8737 63.0126 78.8911C64.3511 83.1784 66.0196 87.6615 67.9844 92.2572C69.4199 89.5353 70.9097 86.8424 72.4529 84.18V84.18ZM99.7778 57.5851C96.7172 60.8983 93.6518 64.5983 90.6365 68.6122C96.753 68.3234 102.88 68.322 108.996 68.608C105.978 64.6313 102.887 60.9368 99.7778 57.5851V57.5851ZM127.278 84.2253C128.802 86.8666 130.264 89.543 131.663 92.2524C133.595 87.6725 135.249 83.1695 136.599 78.821C132.167 77.8297 127.44 77.0198 122.516 76.405C124.164 78.9742 125.752 81.5817 127.278 84.2253V84.2253ZM122.374 123.851C127.462 123.284 132.259 122.515 136.69 121.551C135.319 117.126 133.629 112.526 131.655 107.848C130.25 110.559 128.782 113.237 127.251 115.88C125.689 118.575 124.063 121.233 122.374 123.851V123.851ZM99.5943 142.666C102.739 139.275 105.876 135.524 108.94 131.489C105.966 131.606 102.934 131.665 99.8521 131.665C96.6856 131.665 93.5555 131.594 90.475 131.457C93.4999 135.565 96.5543 139.321 99.5943 142.666ZM67.9211 107.609C65.8449 112.338 64.0946 116.913 62.7046 121.264C67.2089 122.291 72.0714 123.118 77.1951 123.732C75.5532 121.131 73.9632 118.498 72.4261 115.834C70.8636 113.126 69.3615 110.384 67.9211 107.609V107.609ZM78.1747 112.521C80.5278 116.606 83.0132 120.613 85.6269 124.536C90.2357 124.865 94.9985 125.035 99.8521 125.035C104.686 125.035 109.388 124.884 113.916 124.591C116.598 120.677 119.13 116.663 121.508 112.557C123.875 108.474 126.085 104.302 128.135 100.051C126.091 95.7982 123.887 91.6241 121.528 87.5371V87.5385C119.17 83.4507 116.658 79.4538 113.996 75.5566C109.376 75.2076 104.64 75.0249 99.8514 75.0249C95.0419 75.0249 90.299 75.209 85.6806 75.5607C83.0459 79.452 80.5495 83.4349 78.1961 87.5021C75.8293 91.5799 73.5959 95.7336 71.4994 99.9566C73.5743 104.223 75.8006 108.413 78.1741 112.521H78.1747ZM64.4851 38.4726C59.2837 41.4705 57.2605 53.5589 60.5287 69.4118C60.7429 70.4445 60.9758 71.4733 61.2272 72.4976C67.6716 71.0117 74.67 69.9057 81.9971 69.2187C86.2656 63.1454 90.6881 57.6229 95.1278 52.8431C93.9644 51.7223 92.7733 50.6307 91.5557 49.569C80.0873 39.5958 69.3689 35.6582 64.4851 38.4726V38.4726Z" fill="#121318"/>
<path d="M99.8515 86.0308C92.1904 86.0308 85.9804 92.2367 85.9804 99.8915C85.9804 107.547 92.1904 113.753 99.8515 113.753C107.512 113.753 113.723 107.547 113.723 99.8915C113.723 92.2367 107.512 86.0308 99.8515 86.0308" fill="#53C1DE"/>
</svg>
