<svg width="200" height="200" viewBox="0 0 200 200" fill="none" xmlns="http://www.w3.org/2000/svg">
<g clip-path="url(#clip0)">
<path d="M161.082 105.916C155.838 105.946 151.297 107.211 147.488 109.095C146.082 106.299 144.675 103.856 144.441 102.032C144.178 99.9133 143.855 98.6182 144.178 96.0878C144.5 93.5568 145.965 89.9667 145.965 89.6724C145.935 89.4075 145.642 88.1127 142.625 88.0833C139.607 88.0539 137 88.6719 136.707 89.4664C136.414 90.2609 135.828 92.0854 135.447 93.9687C134.92 96.7349 129.412 106.534 126.277 111.684C125.252 109.683 124.373 107.917 124.197 106.504C123.933 104.386 123.611 103.091 123.933 100.56C124.256 98.0294 125.72 94.4396 125.72 94.1453C125.691 93.8805 125.398 92.5857 122.381 92.5562C119.363 92.5268 116.756 93.1448 116.463 93.9393C116.17 94.7338 115.848 96.6172 115.203 98.4417C114.588 100.266 107.263 116.628 105.359 120.895C104.392 123.072 103.543 124.808 102.927 125.985C102.312 127.162 102.898 126.074 102.84 126.191C102.312 127.192 102.019 127.751 102.019 127.751V127.781C101.609 128.516 101.17 129.222 100.964 129.222C100.818 129.222 100.525 127.251 101.023 124.544C102.107 118.864 104.744 110.007 104.715 109.683C104.715 109.536 105.212 107.976 103.015 107.182C100.876 106.387 100.115 107.711 99.9389 107.711C99.7631 107.711 99.6166 108.182 99.6166 108.182C99.6166 108.182 101.99 98.2068 95.0756 98.2068C90.7397 98.2068 84.7631 102.945 81.8041 107.27C79.9291 108.3 75.9447 110.478 71.726 112.803C70.1147 113.685 68.4447 114.627 66.8627 115.481L66.5407 115.127C58.1618 106.152 42.6638 99.7953 43.3083 87.7302C43.5427 83.3456 45.0661 71.7807 73.0742 57.7734C96.0137 46.2969 114.383 49.4456 117.576 56.4492C122.117 66.4544 107.761 85.0523 83.9141 87.7302C74.832 88.7601 70.0564 85.2289 68.8555 83.9047C67.5957 82.5216 67.4199 82.4627 66.9512 82.7276C66.1895 83.1396 66.6582 84.3755 66.9512 85.1112C67.6543 86.9651 70.584 90.2609 75.5645 91.9088C79.9294 93.3508 90.5938 94.1453 103.484 89.1427C117.928 83.5221 129.207 67.9258 125.896 54.8896C122.527 41.618 100.613 37.2628 79.9004 44.649C67.5661 49.063 54.2067 55.949 44.5974 64.9831C33.1716 75.6945 31.3552 85.0523 32.1169 88.9367C34.7832 102.797 53.7966 111.831 61.4138 118.511C61.0329 118.717 60.6814 118.923 60.3591 119.099C56.5505 120.983 42.0485 128.604 38.4157 136.667C34.3142 145.79 39.0603 152.352 42.2243 153.235C52.0095 155.972 62.029 151.057 67.4489 142.965C72.8393 134.872 72.195 124.367 69.7048 119.57L69.6166 119.394L72.6049 117.628C74.5388 116.48 76.4431 115.421 78.1127 114.509C77.1755 117.069 76.5014 120.1 76.1501 124.514C75.7399 129.693 77.8493 136.402 80.6325 139.051C81.863 140.198 83.3278 140.228 84.236 140.228C87.4587 140.228 88.9235 137.55 90.5349 134.342C92.5271 130.429 94.2849 125.897 94.2849 125.897C94.2849 125.897 92.0876 138.168 98.0935 138.168C100.291 138.168 102.488 135.313 103.484 133.842V133.872C103.484 133.872 103.543 133.783 103.66 133.577C103.783 133.395 103.9 133.208 104.011 133.018V132.96C104.89 131.429 106.853 127.928 109.783 122.13C113.562 114.656 117.195 105.298 117.195 105.298C117.195 105.298 117.547 107.593 118.631 111.36C119.275 113.597 120.681 116.039 121.765 118.423C120.886 119.659 120.359 120.365 120.359 120.365L120.388 120.395C119.685 121.336 118.894 122.337 118.074 123.337C115.086 126.927 111.511 131.018 111.043 132.195C110.486 133.578 110.603 134.608 111.687 135.432C112.478 136.021 113.884 136.138 115.379 136.021C118.074 135.844 119.949 135.167 120.886 134.755C122.351 134.225 124.021 133.431 125.633 132.254C128.562 130.076 130.349 126.987 130.174 122.867C130.086 120.601 129.353 118.364 128.445 116.246C128.709 115.863 128.973 115.48 129.236 115.069C133.865 108.271 137.439 100.796 137.439 100.796C137.439 100.796 137.791 103.092 138.875 106.858C139.431 108.771 140.545 110.861 141.541 112.921C137.205 116.481 134.48 120.601 133.543 123.308C131.814 128.311 133.162 130.577 135.711 131.107C136.853 131.342 138.494 130.812 139.724 130.283C141.247 129.782 143.093 128.929 144.793 127.664C147.722 125.486 150.535 122.455 150.388 118.365C150.301 116.481 149.802 114.627 149.129 112.862C152.82 111.332 157.595 110.449 163.66 111.184C176.697 112.715 179.275 120.895 178.777 124.309C178.279 127.723 175.555 129.606 174.646 130.194C173.738 130.753 173.445 130.96 173.533 131.371C173.65 131.99 174.06 131.96 174.851 131.843C175.935 131.666 181.707 129.047 181.941 122.75C182.293 114.656 174.646 105.828 161.082 105.916V105.916ZM60.5349 139.963C56.2282 144.701 50.1638 146.496 47.5856 144.966C44.8024 143.347 45.8861 136.373 51.1892 131.341C54.4118 128.281 58.6013 125.456 61.3552 123.72C61.9704 123.337 62.9079 122.778 64.0212 122.101C64.197 121.984 64.3142 121.924 64.3142 121.924C64.5192 121.807 64.7536 121.66 64.988 121.512C66.9509 128.693 65.0759 134.99 60.5349 139.963V139.963ZM92.029 118.452C90.5349 122.13 87.3708 131.577 85.4665 131.047C83.8256 130.605 82.8298 123.455 85.1439 116.392C86.3158 112.831 88.8061 108.594 90.2709 106.946C92.6442 104.297 95.2221 103.415 95.8669 104.503C96.6286 105.916 92.9665 116.157 92.029 118.452ZM118.015 130.929C117.371 131.253 116.785 131.488 116.521 131.312C116.316 131.194 116.785 130.753 116.785 130.753C116.785 130.753 120.037 127.251 121.326 125.633C122.058 124.691 122.937 123.602 123.874 122.366V122.719C123.875 126.956 119.832 129.781 118.015 130.929ZM138.054 126.339C137.585 125.985 137.644 124.897 139.226 121.483C139.842 120.129 141.247 117.864 143.679 115.715C143.972 116.598 144.148 117.451 144.119 118.246C144.09 123.543 140.34 125.515 138.054 126.339Z" fill="#CF649A"/>
</g>
<defs>
<clipPath id="clip0">
<rect width="150" height="113" fill="white" transform="translate(32 41)"/>
</clipPath>
</defs>
</svg>
