<svg width="200" height="200" viewBox="0 0 200 200" fill="none" xmlns="http://www.w3.org/2000/svg">
<path fill-rule="evenodd" clip-rule="evenodd" d="M53.6981 80.6633L99.838 170.838L22.2852 80.6633H53.6981Z" fill="#EA6C00"/>
<path fill-rule="evenodd" clip-rule="evenodd" d="M145.99 80.6633L99.8505 170.838L177.403 80.6633H145.99Z" fill="#EA6C00"/>
<path fill-rule="evenodd" clip-rule="evenodd" d="M53.6963 80.6633H145.976L99.8362 170.838L53.6963 80.6633Z" fill="#FDAD00"/>
<path fill-rule="evenodd" clip-rule="evenodd" d="M99.8362 30.6887L56.1248 35.3024L53.6963 80.6634L99.8362 30.6887Z" fill="#FDD231"/>
<path fill-rule="evenodd" clip-rule="evenodd" d="M99.8357 30.6887L143.547 35.3024L145.976 80.6634L99.8357 30.6887Z" fill="#FDD231"/>
<path fill-rule="evenodd" clip-rule="evenodd" d="M177.403 80.6633L143.562 35.3022L145.99 80.6633H177.403Z" fill="#FDAD00"/>
<path fill-rule="evenodd" clip-rule="evenodd" d="M22.2852 80.6633L56.1266 35.3022L53.6981 80.6633H22.2852Z" fill="#FDAD00"/>
<path fill-rule="evenodd" clip-rule="evenodd" d="M99.8362 30.6887L53.6963 80.6634H145.976L99.8362 30.6887Z" fill="#FEEEB7"/>
</svg>
