<svg width="200" height="200" viewBox="0 0 200 200" fill="none" xmlns="http://www.w3.org/2000/svg">
<g clip-path="url(#clip0)">
<path d="M99.9996 20L170.706 60V140L99.9996 180L29.293 140V60L99.9996 20Z" fill="white"/>
<path d="M158.08 137.24L102.333 168.773V144.213L137.067 125.107L158.08 137.24ZM161.893 133.787V67.8401L141.493 79.6135V122L161.893 133.787ZM41.6932 137.24L97.4399 168.773V144.213L62.7065 125.107L41.6932 137.24V137.24ZM37.8799 133.787V67.8401L58.2799 79.6135V122L37.8799 133.787V133.787ZM40.2665 63.5735L97.4399 31.2268V54.9735L60.8132 75.1201L60.5332 75.2801L40.2665 63.5735V63.5735ZM159.507 63.5735L102.333 31.2268V54.9735L138.96 75.1201L139.24 75.2801L159.507 63.5735V63.5735Z" fill="#8ED6FB"/>
<path d="M97.4405 138.626L63.1738 119.786V82.4531L97.4405 102.24V138.626ZM102.334 138.626L136.601 119.786V82.4531L102.334 102.24V138.626ZM65.4938 78.1331L99.8938 59.2131L134.294 78.1331L99.8938 97.9998L65.4938 78.1331" fill="#1C78C0"/>
</g>
<defs>
<clipPath id="clip0">
<rect width="160" height="160" fill="white" transform="translate(20 20)"/>
</clipPath>
</defs>
</svg>
