<svg width="200" height="200" viewBox="0 0 200 200" fill="none" xmlns="http://www.w3.org/2000/svg">
<g clip-path="url(#clip0)">
<path d="M51.0937 25H149.906C164.887 25 177 37.1125 177 52.0937V147.081C177 162.062 164.887 174.175 149.906 174.175H51.0937C36.1125 174.175 24 162.062 24 147.081V52.0937C24 37.1125 36.1125 25 51.0937 25Z" fill="#470137"/>
<path d="M104.452 64.2063L85.3271 95.7625L105.727 129.231C105.855 129.486 105.918 129.741 105.855 129.996C105.791 130.251 105.536 130.06 105.153 130.124H90.5546C89.5346 130.124 88.8334 130.06 88.3871 129.423C87.0484 126.745 85.6459 124.131 84.3071 121.454C82.9684 118.84 81.5021 116.163 79.9721 113.421C78.4421 110.68 76.9121 107.939 75.3821 105.134H75.2546C73.9159 107.875 72.4496 110.616 70.9834 113.358C69.5171 116.099 68.0509 118.84 66.6484 121.518C65.1821 124.195 63.7159 126.936 62.2496 129.55C61.9946 130.188 61.4846 130.251 60.7834 130.251H46.7584C46.5034 130.251 46.3121 130.379 46.3121 130.06C46.2484 129.805 46.3121 129.55 46.4396 129.359L66.2659 96.8463L46.9496 64.1425C46.7584 63.8875 46.6946 63.6325 46.8221 63.505C46.9496 63.3138 47.2046 63.25 47.4596 63.25H61.9309C62.2496 63.25 62.5684 63.3138 62.8234 63.3775C63.0784 63.505 63.2696 63.6962 63.4609 63.9512C64.6721 66.6925 66.0746 69.4338 67.5409 72.175C69.0709 74.9163 70.5371 77.5937 72.1309 80.2712C73.6609 82.9487 75.0634 85.6263 76.4021 88.3675H76.5296C77.8684 85.5625 79.2709 82.8213 80.6734 80.1438C82.0759 77.4663 83.5421 74.7888 85.0084 72.1113C86.4746 69.4338 87.8771 66.6925 89.2796 64.0787C89.3434 63.8237 89.4709 63.5687 89.6621 63.4412C89.9171 63.3137 90.1721 63.25 90.4909 63.3137H103.942C104.261 63.25 104.58 63.4412 104.643 63.76C104.707 63.8237 104.58 64.0788 104.452 64.2063Z" fill="#FF61F6"/>
<path d="M133.905 131.463C129.187 131.526 124.47 130.57 120.198 128.594C116.182 126.745 112.867 123.685 110.572 119.924C108.213 116.035 107.066 111.19 107.066 105.389C107.002 100.671 108.213 96.0175 110.572 91.9375C112.995 87.7938 116.501 84.3513 120.708 82.0563C125.171 79.57 130.526 78.3588 136.837 78.3588C137.156 78.3588 137.602 78.3588 138.176 78.4225C138.75 78.4863 139.387 78.4863 140.152 78.55V58.405C140.152 57.9588 140.343 57.7038 140.79 57.7038H153.731C154.05 57.64 154.305 57.895 154.368 58.15C154.368 58.2138 154.368 58.2775 154.368 58.2775V118.968C154.368 120.115 154.432 121.39 154.496 122.793C154.623 124.131 154.687 125.406 154.751 126.49C154.751 126.936 154.56 127.319 154.113 127.51C150.798 128.913 147.292 129.933 143.722 130.57C140.471 131.144 137.22 131.463 133.905 131.463ZM140.152 118.713V90.6625C139.578 90.535 139.005 90.4075 138.431 90.3438C137.73 90.28 137.028 90.2163 136.327 90.2163C133.841 90.2163 131.355 90.7263 129.123 91.8738C126.956 92.9575 125.107 94.5513 123.705 96.5913C122.302 98.6313 121.601 101.373 121.601 104.688C121.537 106.919 121.92 109.15 122.685 111.254C123.322 112.975 124.278 114.505 125.553 115.78C126.765 116.928 128.231 117.82 129.888 118.33C131.61 118.904 133.395 119.159 135.18 119.159C136.136 119.159 137.028 119.095 137.857 119.031C138.686 119.095 139.387 118.968 140.152 118.713Z" fill="#FF61F6"/>
</g>
<defs>
<clipPath id="clip0">
<rect width="153" height="149.175" fill="white" transform="translate(24 25)"/>
</clipPath>
</defs>
</svg>
