<svg width="200" height="200" viewBox="0 0 200 200" fill="none" xmlns="http://www.w3.org/2000/svg">
<g clip-path="url(#clip0)">
<path d="M41.8964 125.389L33.1083 128.593L32.6406 154.678L63.0604 143.589C52.618 140.1 45.0026 133.949 41.8964 125.389" fill="#FDBD39"/>
<path d="M46.4966 97.7991L16 108.916L33.1085 128.6L41.8966 125.396C38.7974 116.863 40.71 107.23 46.4966 97.7991Z" fill="#F69833"/>
<path d="M97.8084 60.151C58.9774 74.3046 33.9393 103.517 41.8968 125.389L182.513 74.1305C174.556 52.2592 136.639 45.9973 97.8084 60.151" fill="#FECF33"/>
<path d="M126.595 139.375C165.426 125.222 190.506 96.1411 182.506 74.1375L41.8896 125.389C49.889 147.399 87.7637 153.529 126.595 139.375Z" fill="#EE6723"/>
<path d="M182.506 74.1306L41.8965 125.389C44.6467 132.967 55.1519 136.701 69.8802 136.701C84.2455 136.701 102.631 133.155 121.799 126.169C160.63 112.015 187.944 89.0923 182.506 74.1306" fill="#F69833"/>
<path d="M154.523 62.8257C140.164 62.8257 121.771 66.3711 102.604 73.3573C63.7728 87.511 36.4592 110.427 41.8968 125.389L182.513 74.1305C179.756 66.5522 169.258 62.8257 154.523 62.8257" fill="#FDBD39"/>
<path d="M146.753 156.064C142.614 156.064 136.513 152.338 128.611 144.982C119.265 136.283 108.564 123.536 98.4637 109.097C88.3703 94.6575 80.0778 80.2252 75.1079 68.4468C69.6982 55.6166 68.9234 47.7317 72.8114 45.0013C73.7119 44.3884 74.7798 44.0749 75.8687 44.1028C79.0308 44.1028 85.2013 46.4501 96.6 57.6504L96.8513 57.8942L96.8164 58.2425C96.7396 59.0505 96.6698 59.8585 96.607 60.6595L96.4813 62.2406L95.3645 61.1192C83.0793 48.7696 77.6766 47.4392 75.9176 47.4392C75.415 47.4392 75.0172 47.5367 74.731 47.7387C73.0418 48.9228 72.9301 54.718 78.1792 67.1512C83.0584 78.7138 91.2322 92.9301 101.193 107.181C111.161 121.439 121.701 133.991 130.887 142.538C140.785 151.753 145.245 152.749 146.704 152.749C147.207 152.749 147.611 152.644 147.919 152.428C149.699 151.182 149.699 144.975 143.849 131.588L143.577 130.975L144.163 130.655C144.75 130.334 145.322 130.021 145.852 129.714L146.557 129.317L146.886 130.056C151.032 139.542 154.913 151.599 149.824 155.166C148.924 155.779 147.849 156.092 146.753 156.064ZM146.753 154.602V155.333V154.602Z" fill="#EE6723"/>
<path d="M127.536 138.971L127.48 139.696C126.496 151.815 123.913 166.387 117.17 166.979C117.03 166.993 116.891 166.993 116.758 166.993C112.179 166.993 107.844 160.445 103.887 147.539C100.131 135.321 97.2206 118.925 95.6919 101.365C94.1563 83.8054 94.1772 67.1511 95.7547 54.4672C97.4719 40.6479 100.739 33.4317 105.471 33.0138C105.611 32.9999 105.757 32.9929 105.897 32.9929C109.22 32.9929 114.224 36.7473 119.348 54.2304L116.004 54.8712C114.294 49.0342 112.43 44.2838 110.581 41.0101C108.871 37.9941 107.202 36.3293 105.897 36.3293C105.855 36.3293 105.813 36.3293 105.764 36.3363C103.712 36.5174 100.725 41.4768 99.0634 54.8781C97.5137 67.3322 97.4928 83.7427 99.0075 101.073C100.522 118.409 103.384 134.562 107.07 146.556C108.717 151.927 110.525 156.357 112.305 159.359C113.938 162.131 115.523 163.656 116.758 163.656C116.8 163.656 116.842 163.656 116.884 163.65C118.845 163.482 122.545 158.314 124.101 140.141L127.536 138.971Z" fill="#EE6723"/>
</g>
<defs>
<clipPath id="clip0">
<rect width="168" height="134" fill="white" transform="translate(16 33)"/>
</clipPath>
</defs>
</svg>
