<svg width="408" height="134" viewBox="0 0 408 134" fill="none" xmlns="http://www.w3.org/2000/svg">
<path d="M9.60195 114.381C7.57283 114.087 6.0802 113.139 5.12406 111.536C4.92536 111.262 4.79596 110.962 4.73588 110.637C4.6739 110.264 4.62777 109.703 4.59749 108.953C4.56342 108.11 4.56318 107.524 4.59677 107.194C4.63036 106.864 4.75762 106.531 4.97856 106.193C5.54201 105.045 6.45604 104.445 7.72063 104.394C9.0789 104.339 10.0637 104.909 10.6749 106.104L11.2036 106.997L12.1787 106.747C15.9289 105.516 20.5619 102.913 26.0778 98.9372C32.4589 94.3164 36.3672 90.0301 37.8025 86.0783C37.9728 85.6492 38.0992 85.2922 38.1815 85.0074C38.2638 84.7226 38.2983 84.4163 38.2851 84.0884C38.3168 83.7118 38.3203 83.2191 38.2957 82.6102C38.2692 81.9545 38.2259 81.4637 38.1659 81.1377C38.1526 80.8099 38.0944 80.5307 37.9913 80.3003C37.9331 80.0212 37.8037 79.7215 37.6031 79.4012C37.1494 78.622 36.5074 77.827 35.6771 77.0161C34.5563 75.9824 33.1096 75.0087 31.3369 74.0952C29.6091 73.1329 26.9576 71.95 23.3824 70.5463C19.8053 69.0958 17.106 67.8913 15.2846 66.9328C13.4613 65.9275 11.9395 64.8396 10.7194 63.6691C7.99436 61.2459 6.51591 58.3267 6.28408 54.9114L6.24717 53.9981C6.09008 50.1106 7.63402 45.9433 10.879 41.4962C13.772 37.6262 18.1242 33.2985 23.9357 28.5131C29.7941 23.7258 35.6359 19.6898 41.4612 16.405C46.4154 13.6246 50.6461 12.0931 54.1532 11.8107L54.7855 11.7851C60.3591 11.5599 63.6911 13.9117 64.7816 18.8404C64.8474 19.3069 64.8897 19.7743 64.9087 20.2427C65.1036 25.0669 62.2998 31.7246 56.4973 40.2158C55.7877 41.2296 55.1014 42.2425 54.4386 43.2545C53.7758 44.2665 53.2675 45.0376 52.9136 45.568C52.2957 46.5312 51.7827 47.1852 51.3744 47.5301C50.9661 47.875 50.4809 48.0588 49.9189 48.0815C49.5442 48.0967 49.1179 47.9966 48.6401 47.7814C48.1604 47.5193 47.8193 47.2047 47.6168 46.8375C47.4162 46.5172 47.3083 46.1698 47.2932 45.7951C47.2762 45.3735 47.3734 44.877 47.5848 44.3055C47.9179 43.26 48.7013 41.7505 49.9352 39.7772C54.7844 32.0752 57.2026 26.3244 57.1898 22.5249L57.1614 21.8224C57.1349 21.1667 57.0711 20.747 56.9698 20.5635C56.818 20.2881 56.4142 20.1637 55.7585 20.1902C53.4204 20.3785 50.2537 21.5386 46.2584 23.6704C40.894 26.7488 35.2386 30.7539 29.2922 35.6855C23.344 40.5703 19.0788 44.7302 16.4966 48.1654C14.8564 50.5305 14.0732 52.6263 14.147 54.4529C14.1943 55.6238 14.5882 56.6635 15.3286 57.5718C16.1196 58.5719 17.3556 59.5541 19.0365 60.5183C20.7174 61.4824 23.3708 62.7122 26.9966 64.2077C32.1009 66.3002 35.9067 68.1871 38.4142 69.8685C40.9216 71.5499 42.7828 73.4919 43.9977 75.6947C44.7007 76.8391 45.1883 77.875 45.4603 78.8022C45.7305 79.6827 45.9183 80.8479 46.0238 82.298C46.0933 82.8581 46.1366 83.3489 46.1537 83.7705C46.1707 84.192 46.1615 84.5442 46.126 84.8271C46.055 85.393 45.942 86.0778 45.7868 86.8816C44.6462 92.3227 41.2609 97.3619 35.6311 101.999C30.8627 105.898 26.2467 108.923 21.783 111.074C17.3175 113.177 13.7498 114.283 11.0802 114.391C10.5649 114.412 10.0722 114.409 9.60195 114.381Z" fill="white"/>
<path d="M56.4932 71.4602C57.7672 66.9988 59.7653 62.4613 62.4875 57.8477C65.2565 53.2321 67.8501 50.0779 70.2681 48.3852C70.5434 48.2333 70.8422 48.0805 71.1643 47.9267C71.4865 47.773 71.7628 47.6445 71.9932 47.5414C72.2704 47.4364 72.5243 47.3323 72.7547 47.2291C73.03 47.0773 73.236 46.9517 73.3728 46.8523C73.9589 46.2657 74.697 45.9544 75.5869 45.9184C75.821 45.909 76.0328 45.9239 76.222 45.9631C77.3518 46.0582 78.4498 46.5299 79.5162 47.3781C81.4204 49.2246 82.5097 51.2213 82.7841 53.3683C83.0586 55.5152 83.2166 57.1039 83.2582 58.1343C83.3396 60.1482 83.2504 62.0049 82.9907 63.7043L83.6933 63.6759C85.6604 63.5964 87.5038 63.3577 89.2235 62.9598C91.1287 62.5076 93.1115 61.6534 95.1718 60.3973C96.7283 59.443 98.0217 58.9451 99.0522 58.9034C99.3332 58.8921 99.6161 58.9276 99.9009 59.0099C100.851 59.2999 101.345 59.9133 101.383 60.85C101.39 61.0374 101.374 61.2256 101.335 61.4149C101.15 62.6421 100.174 64.0186 98.4057 65.5443C95.7199 67.5763 92.9355 68.9086 90.0524 69.5411C87.1675 70.1268 84.5073 70.4689 82.0717 70.5673C81.4629 70.5919 80.853 70.5931 80.2423 70.5709L78.911 72.4543C77.5328 74.3396 75.8512 76.2606 73.8661 78.2174C71.881 80.1741 69.8554 81.7103 67.7894 82.8258C65.95 83.7446 64.3043 84.2333 62.8524 84.292C61.9625 84.328 61.1362 84.1971 60.3736 83.8996C58.4192 83.1341 57.1991 81.9637 56.7132 80.3882C56.2254 78.766 55.9617 77.4631 55.9219 76.4795C55.8595 74.9339 56.0499 73.2608 56.4932 71.4602ZM76.3292 60.8068C76.3983 60.1942 76.4148 59.4429 76.3789 58.553C76.3429 57.6631 76.2873 56.8678 76.2121 56.1672C76.135 55.4197 76.0477 55.001 75.9502 54.9111L75.88 54.9139C75.7395 54.9196 75.4005 55.2382 74.8631 55.8698C74.2826 56.597 73.5691 57.5171 72.7228 58.6304L71.6612 60.2214L72.3921 60.8956C72.6845 61.1652 73.0949 61.4536 73.6233 61.7606C74.1986 62.0658 74.6784 62.3279 75.0625 62.5469C75.4448 62.7191 75.7062 62.8024 75.8467 62.7967C75.8935 62.7948 75.9394 62.7695 75.9843 62.7208C76.0293 62.672 76.092 62.4818 76.1724 62.1502C76.2509 61.7717 76.3032 61.3239 76.3292 60.8068ZM68.8028 73.0738C69.256 72.6802 69.7307 72.2388 70.227 71.7496C70.7701 71.2586 71.1756 70.8434 71.4433 70.5042L72.522 69.3347L71.229 68.6832C70.8468 68.511 70.4392 68.2929 70.0063 68.0289C69.6202 67.7631 69.282 67.5187 68.9915 67.2959C68.6523 67.0281 68.4349 66.8727 68.3393 66.8297C68.2438 66.7866 68.1726 66.766 68.1257 66.7679C68.032 66.7717 67.9627 66.798 67.9178 66.8467C67.6051 67.2346 67.1904 68.002 66.6738 69.1488C66.204 70.2937 65.7595 71.4845 65.3404 72.7212C64.9193 73.911 64.6733 74.7888 64.6024 75.3547L64.4902 76.0629L65.8641 75.2333C66.2293 74.984 66.6854 74.6606 67.2323 74.2632C67.826 73.8639 68.3495 73.4675 68.8028 73.0738Z" fill="white"/>
<path d="M118.789 80.6243C117.545 80.0178 116.882 78.7075 116.801 76.6935C116.691 73.977 117.512 69.3463 119.265 62.8015C119.51 61.9002 119.693 61.1891 119.812 60.6683C119.932 60.1474 119.988 59.7933 119.98 59.6059L119.978 59.5357C119.884 59.5394 119.52 59.8122 118.885 60.3539C118.16 60.993 116.894 62.1701 115.087 63.8851C113.279 65.6001 110.774 68.0236 107.569 71.1555C104.316 74.2425 101.751 76.34 99.8719 77.448C98.9522 77.9074 98.024 78.156 97.0872 78.1938C96.4315 78.2203 95.7954 78.1522 95.179 77.9895C93.6575 77.488 92.4196 76.459 91.4654 74.9025C91.111 74.26 90.8943 73.5416 90.8153 72.7473C90.6876 71.908 90.6133 71.2308 90.5925 70.7156C90.5698 70.1535 90.5705 69.5906 90.5946 69.0266C90.6746 67.5222 90.8127 66.2968 91.009 65.3506C91.2035 64.3576 91.5261 63.0545 91.977 61.4412C94.4598 53.2249 97.0984 48.2862 99.893 46.6251C100.721 46.2164 101.51 45.9968 102.259 45.9665C103.102 45.9325 103.908 46.1345 104.676 46.5726C106.164 47.4038 106.947 48.7796 107.024 50.6999C106.994 51.1233 106.939 51.5008 106.859 51.8325C106.825 52.1622 106.657 52.6382 106.354 53.2603C106.095 53.8337 105.664 54.7659 105.059 56.057C104.146 57.8297 103.06 60.5711 101.803 64.2812L101.042 66.3526L102.202 65.4613C102.612 65.1632 103.43 64.4969 104.655 63.4622C105.878 62.3807 107.26 61.1755 108.801 59.8465C109.163 59.5035 109.502 59.1849 109.818 58.8906C112.176 56.8719 114.103 55.2224 115.6 53.9422C117.141 52.6133 118.342 51.5796 119.204 50.841C120.066 50.1025 120.724 49.5599 121.179 49.2131C121.632 48.8195 121.974 48.5711 122.204 48.468C122.433 48.318 122.662 48.1914 122.893 48.0883L123.033 48.0826C123.724 47.7732 124.421 47.6043 125.124 47.5759C125.826 47.5475 126.512 47.684 127.181 47.9854C128.613 48.5843 129.372 49.3746 129.458 50.3563C129.59 51.2893 129.659 51.826 129.664 51.9665C129.734 53.6995 129.273 56.2279 128.282 59.5519C127.906 60.6931 127.575 61.7854 127.288 62.8291C127 63.8259 126.819 64.5604 126.744 65.0326C126.621 65.4598 126.418 66.242 126.135 67.3794C125.851 68.4699 125.523 69.6559 125.153 70.9375L123.994 75.3473L124.385 76.3167C124.543 76.7325 124.63 77.1512 124.647 77.5728C124.677 78.3221 124.424 79.0126 123.886 79.6442C123.261 80.4201 122.669 80.8662 122.111 80.9826C121.553 81.099 121.156 81.1619 120.922 81.1714C120.22 81.1998 119.509 81.0174 118.789 80.6243Z" fill="white"/>
<path d="M136.133 77.9531C134.366 77.18 133.443 75.8334 133.366 73.9131C133.336 73.1637 133.443 72.3384 133.688 71.4371C134.182 69.7283 135.208 67.2473 136.765 63.9943C138.322 60.7413 140.043 57.4582 141.926 54.1451C143.81 50.8319 145.464 48.2318 146.889 46.3446C148.183 44.6973 149.509 43.8461 150.867 43.7913C151.429 43.7685 151.996 43.8629 152.567 44.0744C154.188 44.7126 155.035 45.9216 155.107 47.7014C155.127 48.2166 155.01 48.8077 154.756 49.4748C154.501 50.1419 153.957 51.1725 153.122 52.5668C152.903 52.9509 152.705 53.2873 152.529 53.5759C151.694 54.9701 151.255 55.715 151.212 55.8106L151.147 55.9539L151.15 56.0242C151.291 56.0185 151.587 55.7954 152.038 55.355C152.175 55.2556 152.311 55.1328 152.445 54.9867C153.578 54.0026 155.053 52.7702 156.87 51.2894C158.687 49.8086 160.164 48.6464 161.303 47.8028C163.989 45.7709 166.222 44.7189 168.002 44.647C168.61 44.6224 169.154 44.7177 169.632 44.933C170.203 45.1445 170.733 45.4983 171.223 45.9946C171.71 46.4441 172.083 46.9685 172.342 47.5679C172.552 48.1224 172.673 48.7977 172.705 49.5939C172.754 50.8117 172.58 52.2965 172.181 54.0484C170.945 59.4465 170.334 62.3094 170.347 62.6373L171.035 62.2576C171.447 62.0064 171.974 61.6802 172.614 61.279C174.491 60.1242 176.255 59.0912 177.908 58.18C179.56 57.2688 180.778 56.6566 181.563 56.3434C182.535 56.0226 183.443 55.8452 184.286 55.8111C185.269 55.7714 186.19 55.9218 187.049 56.2624C187.716 56.517 188.295 56.9158 188.786 57.4589C189.322 57.9533 189.939 58.7259 190.639 59.7766C191.437 60.9641 192.033 61.7844 192.427 62.2377C192.867 62.689 193.375 63.0672 193.951 63.3724C194.43 63.6345 194.765 63.7852 194.954 63.8244C195.188 63.815 195.399 63.8064 195.586 63.7989L196.289 63.7705C197.638 63.4814 199.638 62.4858 202.29 60.7835C204.989 59.0794 207.269 57.4392 209.129 55.8628C211.172 54.1852 212.779 53.3227 213.95 53.2754C214.137 53.2678 214.302 53.2846 214.444 53.3258C215.436 53.4734 215.953 54.0858 215.996 55.1631C216.004 55.3504 215.988 55.5387 215.949 55.7279C215.818 57.1406 215.037 58.6969 213.604 60.3967C211.85 62.2503 209.42 64.2485 206.317 66.3912C203.26 68.532 200.598 69.9766 198.329 70.725C197.541 70.9445 196.771 71.0694 196.022 71.0997C194.383 71.166 192.773 70.8088 191.194 70.0282C188.947 68.9931 186.941 66.963 185.177 63.938C184.975 63.5709 184.752 63.275 184.508 63.0502C184.311 62.8236 184.166 62.7122 184.072 62.716C183.838 62.7255 182.918 63.1848 181.313 64.0942C179.755 65.0016 177.97 66.1058 175.958 67.4068C173.308 69.1559 171.452 70.2395 170.39 70.6577C169.372 71.0272 168.536 71.2252 167.88 71.2517C167.318 71.2744 166.776 71.2025 166.253 71.036C163.877 70.2876 162.624 68.2975 162.493 65.0657C162.448 63.9417 162.537 62.6714 162.762 61.2549C162.922 60.5916 163.102 59.8103 163.3 58.911C163.496 57.9648 163.675 57.16 163.836 56.4967C164.042 55.7847 164.184 55.2395 164.262 54.861C164.339 54.4357 164.375 54.1762 164.372 54.0825L164.369 54.0123C164.228 54.0179 163.704 54.391 162.796 55.1314C161.887 55.8718 160.822 56.7827 159.599 57.8642C158.374 58.8989 157.287 59.8577 156.337 60.7405C155.571 61.522 154.332 62.7918 152.621 64.5499C150.956 66.306 149.226 68.1821 147.43 70.1781C143.117 74.903 140.684 77.3939 140.132 77.6507C139.396 78.0089 138.676 78.2022 137.974 78.2305C137.365 78.2551 136.751 78.1627 136.133 77.9531Z" fill="white"/>
<path d="M212.182 115.765C210.376 115.181 209.089 114.084 208.32 112.473C208.01 111.782 207.839 111.015 207.805 110.171C207.738 108.532 208.223 106.589 209.258 104.342C210.858 100.994 213.895 96.6255 218.369 91.2373C221.232 87.7908 225.139 83.4576 230.088 78.2379C235.036 72.9714 239.135 68.7712 242.386 65.6374C242.658 65.3918 242.86 65.1725 242.993 64.9795C243.171 64.7378 243.323 64.4501 243.451 64.1166C243.578 63.783 243.723 63.308 243.886 62.6916C244.468 60.8385 244.871 59.2037 245.095 57.7872C245.319 56.3708 245.412 55.1942 245.375 54.2574C245.335 53.2739 245.177 52.2716 244.901 51.2506C241.741 51.9882 238.427 53.5764 234.96 56.0153C231.54 58.4522 228.562 60.7775 226.024 62.9912C225.75 63.1899 225.5 63.3876 225.274 63.5844C222.142 66.1974 219.712 68.1721 217.984 69.5086C216.3 70.7964 215 71.7168 214.084 72.2699C213.213 72.7742 212.428 73.0874 211.729 73.2094C211.403 73.2695 211.077 73.3062 210.749 73.3194C209.812 73.3573 208.935 73.1347 208.118 72.6517C206.967 72.0414 206.156 71.1125 205.683 69.8649C205.475 69.3573 205.357 68.7522 205.328 68.0496C205.317 67.7686 205.328 67.4632 205.362 67.1335C205.408 65.9588 205.598 64.8486 205.931 63.8031C206.509 61.8563 207.622 59.2076 209.269 55.8571C210.868 52.4617 212.33 49.752 213.655 47.7281C215.462 44.8403 217.255 43.3604 219.035 43.2885C219.504 43.2696 219.952 43.3453 220.381 43.5156C222.422 44.0899 223.486 45.4543 223.573 47.6088L223.578 47.7493C223.593 48.124 223.561 48.4772 223.48 48.8088C223.398 49.0937 223.249 49.475 223.034 49.9528C222.817 50.3838 222.468 51.0312 221.987 51.8951C221.55 52.7103 221.027 53.6931 220.417 54.8437C219.807 55.9943 219.262 57.0249 218.783 57.9357C218.305 58.8932 217.958 59.5875 217.741 60.0185C217.524 60.4495 217.418 60.7352 217.424 60.8757L217.426 60.946C217.473 60.9441 217.542 60.8944 217.632 60.797C217.862 60.6938 218.386 60.3208 219.205 59.6778C220.07 59.033 221.096 58.2879 222.281 57.4424C228.7 52.5856 233.771 49.214 237.495 47.3277C240.063 45.8635 242.564 45.0822 245 44.9837C245.328 44.9705 245.68 44.9797 246.056 45.0114C248.781 45.089 250.871 46.9045 252.328 50.4579C252.433 50.7352 252.545 51.1763 252.663 51.7814C252.78 52.3397 252.875 52.9457 252.948 53.5995L253.255 55.9797C254.712 54.8887 256.632 53.6383 259.015 52.2285C261.395 50.7718 263.651 49.6955 265.78 48.9995C266.801 48.7237 267.663 48.5716 268.366 48.5432C270.005 48.477 271.034 48.9749 271.452 50.037C271.508 50.2693 271.54 50.4791 271.548 50.6665C271.601 51.9779 270.46 53.361 268.127 54.8158L267.576 55.1195C265.736 56.0383 263.466 57.3263 260.765 58.9836C258.109 60.5922 255.626 62.4048 253.315 64.4217C252.545 65.1096 252.003 65.6241 251.688 65.9652C251.421 66.3044 251.268 66.592 251.231 66.8281C251.072 67.5382 250.637 68.9632 249.926 71.103C249.259 73.1941 248.565 75.1691 247.843 77.0279C243.132 89.3219 237.564 98.9764 231.139 105.992C226.512 111.058 222.02 114.241 217.662 115.543C216.874 115.763 215.917 115.895 214.793 115.941C213.669 115.986 212.799 115.928 212.182 115.765ZM219.931 103.77C223.43 100.955 227.148 96.606 231.085 90.7235C231.748 89.7115 232.583 88.3173 233.59 86.5408C234.642 84.7156 235.474 83.2277 236.084 82.0771C236.256 81.6948 236.341 81.4803 236.339 81.4334L236.337 81.3632L236.269 81.4363C236.086 81.5375 235.522 82.0998 234.578 83.1231C232.241 85.6571 229.707 88.5508 226.977 91.8043C224.294 95.0559 222.242 97.6956 220.823 99.7233C220.334 100.4 219.803 101.172 219.228 102.04C218.7 102.905 218.239 103.698 217.846 104.418C217.451 105.09 217.255 105.474 217.259 105.567C217.261 105.614 217.285 105.637 217.332 105.635C217.379 105.633 217.425 105.607 217.47 105.559C217.609 105.506 217.86 105.332 218.223 105.036C218.633 104.738 219.202 104.316 219.931 103.77Z" fill="white"/>
<path d="M265.282 74.9862C262.948 74.0953 261.679 72.8799 261.476 71.34C261.224 69.7551 261.085 68.6348 261.059 67.9791C260.99 66.293 261.206 64.6658 261.706 63.0974C262.701 59.8671 264.209 56.5457 266.229 53.1332C268.249 49.7208 270.386 46.89 272.641 44.6409C276.023 41.2672 279.416 39.3005 282.818 38.7408C283.284 38.675 283.728 38.6336 284.15 38.6166C286.21 38.5333 288.083 39.0206 289.768 40.0784C291.839 41.4022 293.158 43.2957 293.727 45.7592L294.065 47.1529L295.172 46.686C295.959 46.4196 296.844 46.2666 297.827 46.2268C298.483 46.2003 299 46.2263 299.379 46.3049C299.755 46.3366 300.207 46.4825 300.733 46.7427C301.878 47.2125 302.801 47.9962 303.502 49.0938C304.25 50.1895 304.95 51.8266 305.601 54.0052C305.82 54.7939 306.037 55.5123 306.251 56.1604C306.51 56.7598 306.69 57.1513 306.791 57.3349C306.896 57.6121 306.996 57.7723 307.092 57.8153C307.232 57.8096 307.35 57.8049 307.443 57.8011L307.794 57.7869C309.003 57.5035 310.567 56.7366 312.487 55.4862C314.453 54.2339 316.302 52.9629 318.033 51.6733L320.086 50.2532C321.094 49.6496 321.972 49.3326 322.722 49.3023C323.143 49.2853 323.521 49.3404 323.854 49.4677C324.857 49.8963 325.38 50.6492 325.424 51.7265L325.429 51.867C325.432 53.0866 324.641 54.4087 323.056 55.8332C322.329 56.4255 321.536 57.1144 320.677 57.8997C319.09 59.2774 317.434 60.6579 315.707 62.0412C313.978 63.3777 312.261 64.4089 310.554 65.1346C309.354 65.6054 308.191 65.8634 307.067 65.9089C304.959 65.994 303.03 65.2745 301.28 63.7501C300.547 63.0291 299.902 62.1638 299.345 61.1542C298.787 60.0978 298.262 58.7116 297.77 56.9957L297.607 56.4394C297.275 55.1861 297.013 54.5164 296.822 54.4303C296.678 54.3423 296.559 54.3002 296.465 54.304C296.184 54.3154 295.725 54.5685 295.088 55.0634C294.95 55.1159 294.812 55.1918 294.675 55.2912C293.853 55.8404 292.671 56.7795 291.13 58.1085C289.587 59.3906 287.367 61.3568 284.472 64.0071C284.11 64.3501 283.681 64.7428 283.182 65.1851C281.694 66.6527 279.905 68.2496 277.817 69.976C275.775 71.7004 273.858 72.9977 272.063 73.8677C270.314 74.689 268.806 75.1252 267.542 75.1763C266.746 75.2085 265.992 75.1451 265.282 74.9862ZM275.52 61.9059C276.2 61.3154 277.175 60.4785 278.445 59.3951C279.761 58.3098 281.078 57.2245 282.395 56.1392L286.881 52.2284L286.282 51.3377C285.885 50.7908 285.569 50.5221 285.335 50.5316C285.147 50.5392 285.03 50.5439 284.984 50.5458C284.609 50.5609 284.078 50.77 283.39 51.1731C280.822 52.6374 278.096 55.3982 275.21 59.4555C274.722 60.132 274.234 60.8319 273.747 61.5553C273.307 62.2768 272.91 62.9027 272.556 63.4331C272.249 63.9615 272.098 64.2726 272.101 64.3662C272.103 64.4131 272.128 64.4356 272.174 64.4337C272.409 64.4242 273.524 63.5816 275.52 61.9059Z" fill="white"/>
<path fill-rule="evenodd" clip-rule="evenodd" d="M268.064 128.559C268.092 129.051 268.12 129.527 268.12 130C268.12 132.209 266.329 134 264.12 134C261.91 134 260.12 132.209 260.12 130C260.12 129.923 260.108 129.78 260.093 129.579C259.987 128.221 259.677 124.219 261.221 120.02C263.101 114.908 267.461 109.657 276.408 105.606C285.235 101.61 298.645 98.7144 319.023 98.1148C339.442 97.514 367.096 99.2132 404.569 104.594C406.755 104.909 408.273 106.936 407.959 109.122C407.645 111.309 405.618 112.827 403.431 112.513C366.234 107.171 339.068 105.528 319.259 106.111C299.408 106.695 287.182 109.51 279.707 112.894C272.351 116.224 269.743 120.025 268.729 122.781C267.867 125.126 267.97 126.924 268.064 128.559Z" fill="#FF2C2C"/>
</svg>
