<svg width="518" height="285" viewBox="0 0 518 285" fill="none" xmlns="http://www.w3.org/2000/svg">
<path d="M135.862 117.447C136.633 117.511 137.272 117.87 137.779 118.522C138.282 119.078 138.453 119.744 138.292 120.519C138.223 121.194 137.863 121.785 137.211 122.292C122.773 133.54 109.607 144.16 97.713 154.153C99.1189 158.035 99.4373 162.346 98.668 167.085C97.4472 174.916 94.9237 182.609 91.0975 190.161C87.3673 197.71 82.9767 204.373 77.9258 210.149C72.9709 215.922 67.655 221.085 61.9782 225.638C56.3973 230.187 51.0155 233.719 45.8328 236.234C40.7461 238.746 36.2421 240.225 32.321 240.672C31.7493 240.791 31.2237 240.86 30.7441 240.879C26.1398 241.065 23.1445 239.457 21.7579 236.054C19.3075 230.1 24.0382 219.965 35.9499 205.648C47.8615 191.332 66.1718 173.682 90.8808 152.699C87.79 147.54 81.9348 142.925 73.3154 138.853C64.6921 134.686 51.1187 129.278 32.5951 122.628C27.5258 120.815 23.625 119.388 20.8926 118.345C13.87 115.747 8.91694 112.056 6.03345 107.272C3.14996 102.489 2.58749 96.8908 4.34602 90.4786C6.5144 82.3204 12.2047 73.3473 21.4171 63.5594C30.6255 53.6755 40.7457 44.9558 51.7776 37.4002C62.9055 29.8408 74.1394 23.7182 85.4795 19.0325C96.9155 14.343 105.828 12.5897 112.217 13.7727C113.667 14.0023 114.982 14.4296 116.16 15.0545C117.43 15.5797 118.714 16.4406 120.011 17.6372C121.309 18.8337 122.242 20.5255 122.811 22.7123C123.471 24.7993 123.67 27.3373 123.406 30.3264C123.33 30.8099 123.155 31.2493 122.883 31.6446C122.611 32.0399 122.239 32.3432 121.767 32.5544C121.295 32.7656 120.818 32.833 120.334 32.7564C119.563 32.6915 118.926 32.381 118.423 31.8249C117.916 31.1728 117.695 30.4611 117.76 29.6899C118.192 26.1175 117.754 23.5892 116.445 22.1048C115.232 20.6166 113.512 19.6772 111.287 19.2868C107.703 18.5669 102.918 19.0484 96.9334 20.7315C90.9485 22.4145 84.2849 25.1337 76.9425 28.8893C69.6922 32.545 62.331 37.0218 54.8588 42.3199C42.7988 50.5895 32.7208 59.1634 24.6246 68.0415C16.5285 76.9197 11.5648 84.8546 9.73363 91.8462C6.96745 101.854 11.3387 108.979 22.8474 113.222C25.4799 114.173 29.3788 115.552 34.544 117.361C40.9795 119.695 45.7592 121.472 48.8829 122.691C52.0028 123.814 56.1013 125.377 61.1784 127.382C66.2516 129.291 70.1621 130.958 72.9099 132.384C75.6577 133.811 78.6551 135.467 81.9019 137.353C85.1487 139.24 87.82 141.15 89.9157 143.083C92.0076 144.92 93.7696 146.914 95.2016 149.066C106.908 139.177 119.796 128.809 133.865 117.96C134.517 117.453 135.183 117.282 135.862 117.447ZM93.2978 166.149C93.757 163.248 93.6965 160.56 93.1161 158.086C73.3321 174.93 57.6911 189.686 46.1931 202.352C39.4815 209.829 34.3677 216.425 30.8515 222.14C27.3393 227.95 26.0095 231.895 26.8621 233.975C27.2923 235.11 28.8944 235.526 31.6684 235.221C34.9181 234.802 38.8504 233.442 43.4653 231.142C48.1761 228.838 53.1359 225.563 58.3447 221.317C63.6495 217.067 68.6432 212.254 73.3259 206.876C78.1084 201.591 82.3226 195.32 85.9686 188.063C89.6184 180.901 92.0615 173.597 93.2978 166.149Z" fill="white"/>
<path d="M180.941 117.643C181.704 117.516 182.383 117.68 182.978 118.137C183.669 118.589 184.078 119.197 184.205 119.961C184.332 120.724 184.167 121.403 183.711 121.998C179.983 127.241 175.444 131.412 170.093 134.51C164.741 137.609 159.646 138.728 154.808 137.866C153.597 141.182 151.831 143.847 149.51 145.863C147.186 147.782 144.729 148.794 142.139 148.899L141.995 148.905C139.401 148.913 137.064 148.143 134.984 146.594C132.996 144.945 131.558 142.649 130.67 139.706C129.233 135.057 129.293 130.587 130.849 126.296C132.305 121.914 134.575 118.651 137.659 116.509C138.312 116.002 139.075 115.876 139.95 116.128C140.728 113.983 141.861 112.304 143.349 111.091C144.934 109.874 146.595 109.375 148.333 109.593C149.3 109.746 150.181 110.142 150.975 110.783C151.862 111.324 152.716 112.25 153.537 113.562C154.455 114.87 155.162 116.907 155.658 119.673C156.154 122.439 156.384 125.745 156.347 129.589C156.29 130.552 156.185 131.517 156.031 132.484C159.708 133.105 163.699 132.03 168.007 129.262C172.411 126.49 176.112 122.978 179.111 118.725C179.567 118.13 180.177 117.77 180.941 117.643ZM141.912 143.287C143.255 143.233 144.621 142.553 146.009 141.248C147.493 139.939 148.673 138.21 149.547 136.061C143.172 132.86 139.721 128.292 139.193 122.356C137.348 124.256 136.104 126.756 135.461 129.857C134.913 132.954 135.07 135.637 135.93 137.908C137.136 141.607 139.13 143.4 141.912 143.287ZM150.724 129.528C150.823 127.218 150.743 125.252 150.485 123.629C150.32 121.906 150.12 120.521 149.885 119.474C149.651 118.427 149.376 117.573 149.061 116.913C148.746 116.253 148.439 115.785 148.14 115.509C147.936 115.229 147.786 115.091 147.691 115.095L147.547 115.101C147.163 115.116 146.697 115.471 146.149 116.166C145.596 116.765 145.198 117.598 144.952 118.665C144.458 120.702 144.638 122.761 145.49 124.84C146.343 126.919 148.099 128.77 150.759 130.392C150.747 130.104 150.735 129.816 150.724 129.528Z" fill="white"/>
<path d="M232.231 116.147C232.991 115.924 233.666 115.992 234.257 116.353C234.944 116.709 235.399 117.268 235.622 118.027C235.845 118.787 235.776 119.462 235.415 120.053C234.338 121.922 233.17 123.939 231.913 126.104C230.651 128.172 228.749 131.035 226.207 134.693C223.76 138.347 221.392 141.565 219.103 144.348C216.81 147.034 214.313 149.441 211.612 151.568C208.912 153.695 206.555 154.799 204.54 154.88C203.773 154.911 203.096 154.794 202.508 154.53C197.834 152.989 196.243 145.704 197.734 132.673C194.743 137.117 191.997 140.495 189.496 142.806C185.883 146.122 182.638 146.638 179.759 144.352C177.084 142.347 175.782 138.652 175.852 133.269C175.827 127.889 177.153 122.648 179.829 117.543C180.185 116.857 180.743 116.402 181.503 116.179C182.263 115.956 182.986 116.023 183.673 116.379C184.36 116.736 184.815 117.294 185.037 118.054C185.256 118.717 185.188 119.393 184.831 120.08C183.309 122.831 182.272 125.707 181.721 128.708C181.266 131.705 181.175 134.207 181.448 136.213C181.813 138.12 182.343 139.348 183.038 139.896C183.537 140.356 184.434 139.984 185.731 138.778C188.14 136.567 191.104 132.653 194.624 127.034C195.26 126.143 195.715 125.501 195.987 125.105C196.351 124.61 196.762 124.065 197.218 123.47C197.671 122.779 198.037 122.332 198.317 122.129C198.597 121.925 198.925 121.72 199.301 121.512C199.673 121.209 200.053 121.098 200.44 121.178C200.824 121.163 201.259 121.241 201.747 121.414C203.013 121.843 203.729 122.919 203.895 124.642C204.057 126.268 203.904 128.436 203.437 131.145C202.595 136.464 202.326 140.51 202.631 143.284C203.031 146.054 203.34 147.771 203.559 148.435C203.774 149.002 204.026 149.28 204.314 149.269C204.609 149.449 205.085 149.334 205.741 148.923C206.496 148.604 207.338 148.042 208.267 147.235C209.291 146.425 210.403 145.42 211.604 144.218C212.8 142.921 214.131 141.378 215.596 139.589C217.157 137.797 218.712 135.86 220.261 133.78C221.807 131.604 223.484 129.134 225.294 126.371C227.1 123.512 228.852 120.511 230.551 117.367C230.907 116.68 231.467 116.273 232.231 116.147Z" fill="white"/>
<path d="M307.625 111.659C308.388 111.532 309.067 111.697 309.662 112.153C310.257 112.609 310.57 113.221 310.601 113.989C310.728 114.752 310.563 115.431 310.107 116.026C298.502 130.811 289.097 137.004 281.89 134.605C276.729 132.892 273.749 126.911 272.95 116.663C271.708 119.211 269.767 123.469 267.125 129.436C265.638 133.051 264.626 135.35 264.089 136.333C261.789 141.23 259.185 143.352 256.276 142.701C252.305 141.901 250.163 136.463 249.852 126.387C249.775 124.469 249.732 122.213 249.723 119.619C243.756 128.892 237.72 139.992 231.613 152.921C230.551 155.174 229.348 156.328 228.005 156.382C227.526 156.401 227.088 156.275 226.693 156.003C226.206 155.83 225.862 155.652 225.663 155.468C225.367 155.288 225.106 154.77 224.879 153.914C224.557 153.063 224.464 151.961 224.602 150.611C224.643 149.264 224.852 147.286 225.227 144.677C225.601 142.067 226.195 138.921 227.007 135.237C229.58 122.835 232.829 111.703 236.754 101.84C237.011 101.061 237.469 100.514 238.129 100.199C238.885 99.8806 239.606 99.8995 240.293 100.256C241.072 100.513 241.573 101.021 241.796 101.781C242.111 102.44 242.138 103.112 241.877 103.795C237.519 114.828 234.073 127.025 231.538 140.386C236.883 129.986 242.452 120.393 248.246 111.608C249.512 109.636 250.971 108.904 252.625 109.414C253.792 109.751 254.496 110.539 254.738 111.778C254.977 112.922 255.12 115.27 255.167 118.823C255.191 121.8 255.242 124.248 255.32 126.166C255.525 131.25 256.198 134.826 257.338 136.894C257.891 136.295 258.523 135.309 259.237 133.935C259.677 132.956 260.645 130.755 262.14 127.332C265.74 118.924 268.352 113.438 269.978 110.874C271.6 108.215 273.33 107.04 275.168 107.35C277.202 107.748 278.294 109.818 278.446 113.558C278.729 122.963 280.479 128.224 283.695 129.343C285.641 129.937 288.531 128.956 292.367 126.399C296.199 123.746 300.673 119.146 305.789 112.598C306.245 112.003 306.857 111.69 307.625 111.659Z" fill="white"/>
<path d="M372.154 109.051C372.925 109.116 373.516 109.477 373.927 110.133C374.43 110.689 374.601 111.354 374.44 112.129C374.279 112.905 373.919 113.496 373.359 113.903C356.826 125.62 343.361 137.165 332.964 148.538C328.673 182.627 323.596 210.358 317.735 231.733C310.777 256.898 303.6 270.687 296.203 273.1C295.54 273.319 294.824 273.444 294.057 273.475C291.851 273.564 289.893 272.682 288.185 270.829C285.36 267.485 283.69 261.836 283.177 253.882C282.567 245.932 283.434 236.481 285.778 225.53C288.026 214.582 291.536 203.968 296.309 193.687C304.72 175.957 315.223 160.063 327.818 146.008C328.892 136.933 329.949 127.426 330.989 117.488C328.197 122.117 325.569 126.018 323.103 129.192C319.092 134.542 315.121 136.144 311.191 133.997C307.948 132.206 306.109 128.294 305.673 122.258C305.233 116.127 306.354 109.404 309.037 102.09C309.298 101.407 309.758 100.908 310.418 100.593C311.174 100.274 311.893 100.245 312.576 100.506C313.259 100.766 313.758 101.227 314.073 101.886C314.484 102.542 314.561 103.26 314.304 104.039C311.997 111.146 310.933 116.906 311.111 121.318C311.385 125.726 312.307 128.331 313.877 129.133C314.959 129.761 316.549 128.688 318.647 125.913C323.21 119.964 327.856 112.475 332.583 103.444C333.296 102.07 334.384 101.642 335.846 102.16C337.304 102.581 337.966 103.515 337.833 104.962C336.686 117.018 335.467 128.452 334.175 139.265C343.682 129.658 355.675 119.709 370.151 109.42C370.711 109.014 371.379 108.89 372.154 109.051ZM312.347 230.365C317.711 210.933 322.428 186.194 326.498 156.149C316.604 168.078 308.206 181.388 301.306 196.079C297.499 204.111 294.561 212.252 292.493 220.503C290.332 228.853 289.088 236.109 288.761 242.271C288.433 248.433 288.598 253.711 289.256 258.104C289.914 262.497 290.947 265.482 292.356 267.058C293.059 267.798 293.742 268.059 294.405 267.84C294.881 267.725 295.399 267.463 295.959 267.057C296.519 266.65 297.438 265.604 298.715 263.919C299.996 262.33 301.257 260.261 302.499 257.713C303.745 255.261 305.28 251.644 307.105 246.862C308.929 242.08 310.677 236.581 312.347 230.365Z" fill="white"/>
<path d="M425.471 107.617C426.227 107.299 426.948 107.318 427.635 107.674C428.318 107.935 428.771 108.445 428.994 109.204C429.309 109.864 429.336 110.536 429.075 111.219C419.668 132.832 410.936 143.802 402.879 144.127C402.399 144.147 401.87 144.12 401.29 144.047C394.813 143.06 390.483 134.588 388.301 118.631C383.857 125.152 379.894 130.5 376.412 134.676C373.29 138.261 370.556 139.573 368.212 138.611C365.875 137.84 364.671 135.391 364.6 131.262C364.461 127.809 365.061 123.654 366.402 118.795C367.743 113.937 369.809 109.194 372.601 104.566C375.392 99.9371 378.491 96.9776 381.898 95.687C386.908 93.659 391.676 95.1477 396.202 100.153C396.705 100.709 396.924 101.373 396.859 102.144C396.89 102.912 396.627 103.547 396.071 104.05C395.515 104.552 394.853 104.819 394.086 104.85C393.314 104.785 392.677 104.475 392.175 103.919C388.654 100.026 385.218 99.3959 381.866 102.029C378.045 104.97 374.94 110.14 372.548 117.538C370.249 124.837 369.449 130.01 370.149 133.056C370.705 132.553 371.351 131.902 372.088 131.104C375.758 126.824 380.22 120.735 385.473 112.837C386.65 111.06 387.465 109.826 387.918 109.135C388.646 108.145 389.642 107.816 390.904 108.149C392.163 108.387 392.867 109.175 393.018 110.514C393.399 115.206 393.952 119.364 394.674 122.985C395.397 126.607 396.085 129.366 396.738 131.261C397.387 133.06 398.121 134.568 398.939 135.784C399.756 137 400.365 137.792 400.764 138.16C401.255 138.428 401.741 138.553 402.22 138.533C403.575 138.767 405.228 138.076 407.181 136.459C409.225 134.743 411.739 131.567 414.722 126.931C417.797 122.195 420.872 116.258 423.946 109.12C424.299 108.337 424.807 107.836 425.471 107.617Z" fill="white"/>
<path d="M375.12 213C375.12 207.708 365.66 170.108 515 191.554" stroke="#FF2C2C" stroke-width="6" stroke-linecap="round"/>
</svg>
